<?xml version="1.0" encoding="UTF-8" standalone="no"?>
<svg width="352px" height="494px" viewBox="0 0 352 494" version="1.1" xmlns="http://www.w3.org/2000/svg" xmlns:xlink="http://www.w3.org/1999/xlink">
    <!-- Generator: Sketch 3.8.3 (29802) - http://www.bohemiancoding.com/sketch -->
    <title>coffee_L</title>
    <desc>Created with Sketch.</desc>
    <defs></defs>
    <g id="Design" stroke="none" stroke-width="1" fill="none" fill-rule="evenodd" opacity="0.414937034">
        <g id="Main-page" transform="translate(-254.000000, -1778.000000)" fill="#FFFFFF">
            <g id="Main-page-box-3" transform="translate(60.000000, 1680.000000)">
                <path d="M238.429048,98 L226.883117,151.945032 L194,151.945032 C194,151.945032 194,195.827094 194,195.827094 C194,195.827094 226.883117,195.827094 226.883117,195.827094 C226.883118,195.827094 258.524431,587.32497 258.524431,587.32497 C258.702009,589.522139 260.644382,591.303296 262.84162,591.303296 L474.265066,591.303296 C476.471806,591.303296 478.40697,589.519037 478.587992,587.310537 C478.587992,587.310537 510.662626,195.993976 510.662626,195.993978 C510.662626,195.993981 545.74342,195.993978 545.74342,195.993978 L545.74342,151.945032 L510.662626,151.945032 C509.110853,136.638616 500.451864,98 500.451864,98 L238.429048,98 Z M256.190324,118.883248 L248.777643,151.924306 L490.210471,151.924306 L483.91905,118.883248 L256.190324,118.883248 Z M215.916653,162.714272 L215.916653,184.62943 L522.728874,184.62943 L522.728874,162.714272 L215.916653,162.714272 Z M248.789391,195.58701 L259.718952,360.043098 L478.780096,360.043098 L489.856136,195.58701 L248.789391,195.58701 Z M359.36378,370.908278 C358.812271,370.908278 358.365184,371.349771 358.365184,371.905982 L358.365184,479.486367 C358.365184,480.037384 358.802948,480.484071 359.36378,480.484071 L379.281747,480.484071 C379.833256,480.484071 380.280343,480.042578 380.280343,479.486367 L380.280343,371.905982 C380.280343,371.354966 379.842579,370.908278 379.281747,370.908278 L359.36378,370.908278 Z M406.075123,370.46215 C405.524369,370.433286 405.054789,370.850776 405.02568,371.406225 L399.395357,478.839174 C399.366519,479.389436 399.780305,479.858422 400.340369,479.887773 L420.231039,480.930199 C420.781792,480.959063 421.251372,480.541574 421.280482,479.986125 L426.910804,372.553175 C426.939642,372.002914 426.525856,371.533928 425.965793,371.504576 L406.075123,370.46215 Z M312.679734,371.504576 C312.128981,371.53344 311.705613,371.997726 311.734723,372.553175 L317.365045,479.986125 C317.393883,480.536387 317.854425,480.959551 318.414488,480.930199 L338.305158,479.887773 C338.855912,479.85891 339.27928,479.394623 339.25017,478.839174 L333.619848,371.406225 C333.59101,370.855963 333.130468,370.432799 332.570405,370.46215 L312.679734,371.504576 Z M451.837391,370.24878 C451.287981,370.200713 450.804117,370.60156 450.75564,371.155654 L441.379391,478.326663 C441.331367,478.875583 441.728534,479.358724 442.287232,479.407604 L462.129405,481.143569 C462.678815,481.191637 463.162679,480.79079 463.211156,480.236695 L472.587404,373.065686 C472.635429,372.516766 472.238262,372.033625 471.679564,371.984745 L451.837391,370.24878 Z M267.905595,371.736442 C267.355429,371.774914 266.940229,372.246518 266.979028,372.801375 L274.483456,480.119699 C274.521893,480.669374 274.98975,481.084436 275.549216,481.045314 L295.418664,479.655907 C295.968829,479.617436 296.38403,479.145831 296.345231,478.590975 L288.840802,371.272651 C288.802365,370.722976 288.334509,370.307914 287.775043,370.347035 L267.905595,371.736442 Z M270.915241,491.441651 C270.915241,491.441651 280.463676,565.657942 280.463676,565.657942 C280.640374,567.031343 281.912889,568.144706 283.283499,568.144706 L455.124996,568.144706 C456.505643,568.144706 457.775544,567.03084 457.961247,565.657942 C457.961247,565.657942 467.999977,491.44165 467.999977,491.44165 C467.999977,491.44165 270.915241,491.44165 270.915241,491.441651 Z" id="coffee_L"></path>
            </g>
        </g>
    </g>
</svg>