<?xml version="1.0" encoding="UTF-8" standalone="no"?>
<svg width="552px" height="453px" viewBox="0 0 552 453" version="1.1" xmlns="http://www.w3.org/2000/svg" xmlns:xlink="http://www.w3.org/1999/xlink">
    <!-- Generator: Sketch 3.8.3 (29802) - http://www.bohemiancoding.com/sketch -->
    <title>takeaway_L</title>
    <desc>Created with Sketch.</desc>
    <defs></defs>
    <g id="Design" stroke="none" stroke-width="1" fill="none" fill-rule="evenodd" opacity="0.373484142">
        <g id="Case-detail-page" transform="translate(-222.000000, -2618.000000)" fill="#FFFFFF">
            <g id="Case-detail-box-4" transform="translate(60.000000, 2490.000000)">
                <path d="M460.184056,511.059058 L318.010885,580.401546 C317.518862,580.641522 316.912543,580.440899 316.671304,579.946287 L315.436801,577.41518 C315.194547,576.918486 315.404189,576.32247 315.90278,576.07929 L440.740329,515.191949 L303.333203,544.398736 C302.803595,544.511307 302.267637,544.163874 302.151898,543.619365 L300.209564,534.481402 C300.092572,533.930998 300.435063,533.403005 300.971741,533.288931 L482.93786,494.610838 L696.519083,390.440315 C697.011107,390.200339 697.617426,390.400962 697.858665,390.895574 L699.093168,393.426682 C699.335422,393.923376 699.12578,394.519392 698.627189,394.762571 L502.381587,490.477947 L710.662133,446.20655 C711.191741,446.093978 711.727699,446.441412 711.843438,446.985921 L713.785772,456.123884 C713.902764,456.674287 713.560273,457.20228 713.023595,457.316355 L460.184056,511.059058 Z M309.82693,144.958083 L340.290933,128 L439.415181,128 L497.554521,161.08366 L473.373162,237.342288 L448.217822,489.021724 L280.495473,489.021724 L243.706989,465.935161 L220.131906,256.61019 L162,151.929735 L199.56387,162.626876 L221.660447,144.958083 L309.82693,144.958083 Z M273,247 L292.942705,473.140841 L436.561638,473.140841 L455.971598,247 L273,247 Z M344.018703,142 L433.351596,142 L477.781355,168.040873 L458.260066,229.787814 L276,229.787814 L298.005688,168.040873 L344.018703,142 Z M233,260.88936 L256.184577,458.777082 L279.249654,471.273552 L257.909411,250 L233,260.88936 Z M186,169 L228.208078,245.606008 L253.608137,234.352814 L229.942243,181.488848 L186,169 Z M227.912454,157 L294.627229,157 L287.378688,161.394787 L262.968316,228.757971 L241.057,171.384598 L217,165.432351 L227.912454,157 Z" id="takeaway_L"></path>
            </g>
        </g>
    </g>
</svg>