<?xml version="1.0" encoding="UTF-8" standalone="no"?>
<svg width="289px" height="349px" viewBox="0 0 289 349" version="1.1" xmlns="http://www.w3.org/2000/svg" xmlns:xlink="http://www.w3.org/1999/xlink">
    <!-- Generator: Sketch 3.8.3 (29802) - http://www.bohemiancoding.com/sketch -->
    <title>treehouse icon WHITE</title>
    <desc>Created with Sketch.</desc>
    <defs></defs>
    <g id="Symbols" stroke="none" stroke-width="1" fill="none" fill-rule="evenodd">
        <g id="treehouse-icon-WHITE" fill="#FFFFFF">
            <g>
                <path d="M143.906607,17.0614414 C200.117644,17.3401068 250.691496,67.7250989 250.691489,128.568562 C250.691489,130.982565 251.718672,133.28208 253.515433,134.890418 C271.402706,150.901878 274.740628,165.722782 267.606251,179.04339 C261.735519,190.004646 248.523294,198.996884 239.029646,199.969132 C239.63664,199.927003 239.63664,199.927003 239.517866,199.933589 C239.372408,199.936072 239.372408,199.936072 239.111697,199.939099 C238.729668,199.943181 238.174459,199.94728 237.456586,199.95133 C236.080417,199.959093 234.122124,199.966602 231.632437,199.973835 C227.237487,199.986604 221.291634,199.998251 214.180924,200.008765 C208.559598,200.017077 202.536421,200.024215 196.513198,200.030174 C194.405034,200.032259 193.099967,200.033452 190.690698,200.035541 C188.883831,200.037033 188.883831,200.037033 188.482601,200.037332 C183.809534,200.040812 180.02408,203.839117 180.027552,208.521085 C180.031025,213.203053 183.82211,216.995717 188.495177,216.992238 C188.897214,216.991939 188.897214,216.991939 190.705045,216.990445 C193.115374,216.988356 194.420923,216.987162 196.529907,216.985076 C202.555679,216.979115 208.581497,216.971974 214.2059,216.963657 C234.847944,216.933134 239.948203,216.918316 240.750445,216.836158 C255.877285,215.287011 274.009235,202.946411 282.517693,187.060252 C293.514722,166.527677 288.276747,143.270235 264.790224,122.246709 L267.614168,128.568564 C267.614175,58.3535409 209.4749,0.43137724 143.99034,0.106738434 C139.317329,0.0835720442 135.51036,3.86023152 135.487238,8.54214346 C135.464115,13.2240554 139.233595,17.038275 143.906607,17.0614414 L143.906607,17.0614414 Z" id="Path-210"></path>
                <path d="M144.096956,0.106738434 C78.6123962,0.43137724 20.473121,58.3535409 20.4731288,128.568564 L23.2970726,122.246709 C-0.189451163,143.270235 -5.42742593,166.527677 5.56960331,187.060252 C14.0780609,202.946411 32.2100114,215.287011 47.3368515,216.836158 C48.1465417,216.919079 57.1268265,216.933208 95.6467266,216.963853 C106.029521,216.972113 117.153767,216.979206 128.277989,216.985126 C132.171447,216.987199 135.786807,216.988976 139.031376,216.990459 C142.368696,216.991943 142.368696,216.991943 143.110482,216.99224 C147.78355,216.994112 151.573335,213.200143 151.575204,208.518175 C151.577072,203.836206 147.790316,200.039202 143.117248,200.037331 C142.375896,200.037034 142.375896,200.037034 139.039095,200.03555 C135.794935,200.034068 132.179996,200.03229 128.286979,200.030218 C117.164129,200.024298 106.041303,200.017207 95.6601639,200.008948 C75.4029933,199.992832 48.8816025,199.951103 49.0576499,199.969132 C39.5640025,198.996884 26.3517772,190.004646 20.4810449,179.04339 C13.3466686,165.722782 16.6845903,150.901878 34.5718631,134.890418 C36.3686245,133.28208 37.3958072,130.982565 37.3958069,128.568562 C37.3958002,67.7250989 87.9696519,17.3401068 144.18069,17.0614414 C148.853701,17.038275 152.623181,13.2240554 152.600059,8.54214346 C152.576936,3.86023152 148.769968,0.0835720442 144.096956,0.106738434 L144.096956,0.106738434 Z" id="Path-210"></path>
                <path d="M152.409812,250.797097 L179.002592,250.797097 C183.675661,250.797097 187.463931,247.001611 187.463931,242.319642 C187.463931,237.637673 183.675661,233.842187 179.002592,233.842187 L152.409812,233.842187 C147.736744,233.842187 143.948473,237.637673 143.948473,242.319642 C143.948473,247.001611 147.736744,250.797097 152.409812,250.797097 L152.409812,250.797097 Z" id="Line"></path>
                <path d="M152.409812,342.83804 L179.002592,342.83804 C183.675661,342.83804 187.463931,339.042554 187.463931,334.360585 C187.463931,329.678616 183.675661,325.88313 179.002592,325.88313 L152.409812,325.88313 C147.736744,325.88313 143.948473,329.678616 143.948473,334.360585 C143.948473,339.042554 147.736744,342.83804 152.409812,342.83804 L152.409812,342.83804 Z" id="Line"></path>
                <path d="M152.409812,296.817569 L179.002592,296.817569 C183.675661,296.817569 187.463931,293.022083 187.463931,288.340113 C187.463931,283.658144 183.675661,279.862658 179.002592,279.862658 L152.409812,279.862658 C147.736744,279.862658 143.948473,283.658144 143.948473,288.340113 C143.948473,293.022083 147.736744,296.817569 152.409812,296.817569 L152.409812,296.817569 Z" id="Line"></path>
                <path d="M116.146931,173.071322 L116.146931,112.945727 L113.523518,119.082168 L172.078629,63.1631325 L160.402776,63.1631325 L218.957886,119.082168 L216.334473,112.945727 L216.334473,174.182095 C216.334473,178.864065 220.122744,182.659551 224.795813,182.659551 C229.468881,182.659551 233.257152,178.864065 233.257152,174.182095 L233.257152,112.945727 C233.257152,110.626855 232.309073,108.409199 230.633739,106.809286 L172.078629,50.8902503 C168.810133,47.7688981 163.671271,47.7688981 160.402776,50.8902503 L101.847665,106.809286 C100.172331,108.409199 99.2242525,110.626855 99.2242525,112.945727 L99.2242525,173.071322 C99.2242525,177.753291 103.012523,181.548777 107.685592,181.548777 C112.35866,181.548777 116.146931,177.753291 116.146931,173.071322 L116.146931,173.071322 Z" id="Path-215"></path>
                <path d="M58.12632,301.661829 L58.12632,301.661829 C72.1455255,301.661829 83.5103372,290.275371 83.5103372,276.229463 C83.5103372,262.183555 72.1455255,250.797097 58.12632,250.797097 C44.1071144,250.797097 32.7423028,262.183555 32.7423028,276.229463 C32.7423028,290.275371 44.1071144,301.661829 58.12632,301.661829 L58.12632,301.661829 Z M58.12632,318.616739 L58.12632,318.616739 C34.7609774,318.616739 15.8196247,299.639309 15.8196247,276.229463 C15.8196247,252.819617 34.7609774,233.842187 58.12632,233.842187 C81.4916626,233.842187 100.433015,252.819617 100.433015,276.229463 C100.433015,299.639309 81.4916626,318.616739 58.12632,318.616739 L58.12632,318.616739 Z" id="Oval-47"></path>
                <polygon id="Line" points="50.8737436 212.043016 50.8737436 243.530707 67.7964218 243.530707 67.7964218 212.043016"></polygon>
                <path d="M123.449053,211.126949 L111.361425,322.544933 L113.790149,317.466533 L96.8674705,334.421444 C93.563112,337.732096 93.563112,343.099724 96.8674705,346.410376 C100.171829,349.721028 105.529252,349.721028 108.833611,346.410376 L125.756289,329.455466 C127.119772,328.089386 127.976646,326.297683 128.185012,324.377066 L140.272639,212.959083 C140.777607,208.304529 137.420877,204.121131 132.775171,203.615201 C128.129466,203.109271 123.954021,206.472395 123.449053,211.126949 L123.449053,211.126949 Z" id="Path-217"></path>
                <path d="M191.139765,212.959083 L203.227392,324.377066 C203.435758,326.297683 204.292632,328.089386 205.656116,329.455466 L222.578794,346.410376 C225.883152,349.721028 231.240576,349.721028 234.544934,346.410376 C237.849293,343.099724 237.849293,337.732096 234.544934,334.421444 L217.622256,317.466533 L220.050979,322.544933 L207.963352,211.126949 C207.458384,206.472395 203.282938,203.109271 198.637233,203.615201 C193.991528,204.121131 190.634797,208.304529 191.139765,212.959083 L191.139765,212.959083 Z" id="Path-217"></path>
            </g>
        </g>
    </g>
</svg>